<svg width="137" height="35" viewBox="0 0 137 35" fill="none" xmlns="http://www.w3.org/2000/svg">
<path fill-rule="evenodd" clip-rule="evenodd" d="M1.17194 29.8303L1.31792 29.8694C1.26855 29.8596 1.21979 29.8466 1.17194 29.8303V29.8303ZM21.9743 14.9608C22.5218 15.2868 22.8624 15.7173 22.9719 16.1608L22.9962 16.3303C22.9476 16.826 22.5948 17.3216 21.9622 17.6999L2.74124 29.3998C2.35196 29.6476 1.97484 29.752 1.64638 29.752C1.30576 29.752 1.01379 29.6346 0.770492 29.4129L0.697501 29.3346C0.378649 28.9222 0.217764 28.3954 0.24739 27.8607V4.79993C0.24739 4.09559 0.442033 3.56081 0.770492 3.23472C1.01379 3.01299 1.30576 2.8956 1.64638 2.8956C1.97484 2.8956 2.35196 3.01299 2.74124 3.24777L21.9622 14.9608H21.9743ZM1.63422 2.73907H1.80453H1.63422ZM113.31 29.2955H115.573V12.9912H113.31V29.2955ZM133.748 18.8607L131.144 25.9303H131.071L128.371 18.8607H125.925L129.976 28.7477L127.665 34.2389H130.037L136.278 18.8607H133.748ZM120.877 27.4433C120.135 27.4433 119.101 27.052 119.101 26.0607C119.101 24.7955 120.39 24.3129 121.497 24.3129C122.507 24.3129 122.969 24.5477 123.578 24.8607C123.495 25.5687 123.176 26.2207 122.679 26.6956C122.183 27.1705 121.542 27.4362 120.877 27.4433ZM121.157 18.5086C119.502 18.5086 117.811 19.2912 117.106 20.9999L119.113 21.9129C119.551 20.9999 120.354 20.7129 121.181 20.7129C122.361 20.7129 123.553 21.4564 123.578 22.7999V22.9694C122.847 22.5546 122.032 22.3396 121.205 22.3433C119.04 22.3433 116.826 23.6216 116.826 26.0085C116.826 28.1998 118.614 29.6085 120.597 29.6085C122.13 29.6085 122.969 28.865 123.505 28.0042H123.578V29.2694H125.767V23.0085C125.767 20.126 123.748 18.5086 121.145 18.5086H121.157ZM107.118 20.8564H103.894V15.2477H107.118C108.821 15.2477 109.795 16.7607 109.795 18.052C109.795 19.3173 108.821 20.8433 107.118 20.8433V20.8564ZM107.07 12.9912H101.62V29.2955H103.894V23.1129H107.057C109.576 23.1129 112.045 21.1564 112.045 18.052C112.045 14.9477 109.576 12.9912 107.057 12.9912H107.07ZM77.3987 27.4433C75.8416 27.4433 74.5278 26.0346 74.5278 24.1042C74.5278 22.1477 75.8416 20.7129 77.3987 20.7129C78.9559 20.7129 80.1724 22.1477 80.1724 24.1042C80.1724 26.0346 78.9559 27.4433 77.3987 27.4433ZM80.0142 19.7738H79.9291C79.5832 19.3713 79.1612 19.0526 78.6913 18.839C78.2214 18.6253 77.7144 18.5215 77.2041 18.5347C75.8649 18.5889 74.5983 19.2012 73.6736 20.2414C72.749 21.2815 72.2393 22.6673 72.2529 24.1042C72.2426 25.5362 72.7545 26.9159 73.6795 27.949C74.6044 28.9822 75.8692 29.587 77.2041 29.6346C77.7168 29.6488 78.2262 29.5429 78.6968 29.3244C79.1674 29.1059 79.5879 28.78 79.9291 28.3694H80.0142V29.165C80.0142 31.2911 78.9559 32.4259 77.2528 32.4259C76.6834 32.4142 76.1303 32.2205 75.6643 31.8696C75.1983 31.5187 74.8407 31.0266 74.6373 30.4563L72.6665 31.3302C73.0379 32.3062 73.673 33.1407 74.4903 33.7265C75.3076 34.3122 76.2697 34.6224 77.2528 34.6172C79.9169 34.6172 82.1675 32.9215 82.1675 28.839V18.8738H80.0142V19.7868V19.7738ZM83.7368 29.2955H86.0117V12.9912H83.7368V29.2955ZM89.3571 23.9085C89.3324 23.5051 89.3831 23.1004 89.5061 22.7183C89.6291 22.3361 89.8221 21.984 90.0736 21.6828C90.3251 21.3816 90.6301 21.1372 90.9708 20.9639C91.3115 20.7906 91.681 20.692 92.0577 20.6738C92.9701 20.6738 93.7365 21.1564 93.9798 21.8477L89.3571 23.9216V23.9085ZM96.4129 22.0694C95.9871 20.8303 94.6732 18.5477 91.9848 18.5477C89.3206 18.5477 87.1065 20.7781 87.1065 24.0781C87.1065 27.1955 89.2963 29.6346 92.2402 29.6346C94.6124 29.6346 95.9871 28.0694 96.5588 27.1694L94.7949 25.9172C94.5291 26.3873 94.1538 26.7752 93.7059 27.0427C93.258 27.3103 92.7529 27.4483 92.2402 27.4433C91.0845 27.4433 90.2573 26.8824 89.7342 25.7607L96.6562 22.6955L96.4129 22.0694V22.0694ZM41.3048 20.2433V22.5912H46.5479C46.4723 23.6937 46.0523 24.7368 45.3557 25.552C44.8286 26.1279 44.1945 26.5787 43.4946 26.8753C42.7947 27.1719 42.0445 27.3076 41.2926 27.2737C40.5302 27.2721 39.7757 27.1083 39.0727 26.792C38.3697 26.4756 37.7322 26.0129 37.1971 25.4307C36.662 24.8484 36.2398 24.1582 35.9551 23.3999C35.6704 22.6416 35.5288 21.8303 35.5385 21.0129C35.5241 19.7992 35.8433 18.6079 36.4562 17.5874C37.0691 16.5669 37.9486 15.7624 38.9851 15.2742C40.0215 14.786 41.1691 14.6357 42.2847 14.8421C43.4002 15.0485 44.4345 15.6023 45.2584 16.4347L46.8034 14.7781C46.0783 14.0092 45.2175 13.4032 44.2712 12.9956C43.3249 12.588 42.3123 12.3869 41.2926 12.4042C39.1518 12.404 37.0969 13.3068 35.5718 14.9176C34.0467 16.5284 33.1739 18.7178 33.1419 21.0129C33.1739 23.308 34.0467 25.4974 35.5718 27.1082C37.0969 28.719 39.1518 29.6218 41.2926 29.6216C43.6891 29.6216 45.4896 28.7868 46.9007 27.2085C48.1797 25.7101 48.8609 23.7344 48.7985 21.7042C48.7985 21.1564 48.762 20.6607 48.6768 20.2433H41.2926H41.3048ZM54.7716 27.4433C53.2023 27.4433 51.8519 26.0607 51.8519 24.0781C51.8519 22.0825 53.2023 20.726 54.7716 20.726C56.353 20.726 57.6912 22.0825 57.6912 24.0781C57.6912 26.0607 56.353 27.4433 54.7716 27.4433V27.4433ZM54.7716 18.5347C54.0883 18.5224 53.4097 18.6572 52.7759 18.9311C52.1421 19.205 51.566 19.6125 51.0817 20.1293C50.5973 20.6462 50.2146 21.262 49.9562 21.9403C49.6977 22.6185 49.5688 23.3455 49.5771 24.0781C49.5672 24.8118 49.6949 25.5402 49.9526 26.22C50.2103 26.8998 50.5928 27.5171 51.0773 28.0354C51.5618 28.5536 52.1384 28.9623 52.773 29.237C53.4077 29.5117 54.0873 29.6469 54.7716 29.6346C55.4559 29.6469 56.1355 29.5117 56.7701 29.237C57.4047 28.9623 57.9814 28.5536 58.4659 28.0354C58.9504 27.5171 59.3328 26.8998 59.5905 26.22C59.8482 25.5402 59.976 24.8118 59.9661 24.0781C59.9743 23.3455 59.8454 22.6185 59.587 21.9403C59.3285 21.262 58.9458 20.6462 58.4615 20.1293C57.9771 19.6125 57.401 19.205 56.7672 18.9311C56.1334 18.6572 55.4548 18.5224 54.7716 18.5347V18.5347ZM66.1095 27.4433C64.528 27.4433 63.1898 26.0607 63.1898 24.0781C63.1898 22.0825 64.528 20.726 66.1095 20.726C67.6666 20.726 69.0291 22.0825 69.0291 24.0781C69.0291 26.0607 67.6666 27.4433 66.1095 27.4433ZM66.1095 18.5347C65.4262 18.5224 64.7476 18.6572 64.1138 18.9311C63.48 19.205 62.9039 19.6125 62.4196 20.1293C61.9353 20.6462 61.5525 21.262 61.2941 21.9403C61.0357 22.6185 60.9067 23.3455 60.915 24.0781C60.9051 24.8118 61.0328 25.5402 61.2905 26.22C61.5482 26.8998 61.9307 27.5171 62.4152 28.0354C62.8997 28.5536 63.4763 28.9623 64.111 29.237C64.7456 29.5117 65.4252 29.6469 66.1095 29.6346C66.7938 29.6469 67.4734 29.5117 68.108 29.237C68.7426 28.9623 69.3193 28.5536 69.8038 28.0354C70.2883 27.5171 70.6708 26.8998 70.9285 26.22C71.1862 25.5402 71.3139 24.8118 71.304 24.0781C71.3122 23.3455 71.1833 22.6185 70.9249 21.9403C70.6664 21.262 70.2837 20.6462 69.7994 20.1293C69.315 19.6125 68.7389 19.205 68.1051 18.9311C67.4713 18.6572 66.7927 18.5224 66.1095 18.5347V18.5347Z" fill="white"/>
<path fill-rule="evenodd" clip-rule="evenodd" d="M39.8452 4.21306C39.8452 5.19132 39.5776 5.97393 39.0301 6.56088C38.4219 7.25218 37.6068 7.60435 36.6214 7.60435C35.6726 7.60435 34.8575 7.25218 34.1884 6.54784C33.8669 6.20808 33.6136 5.80137 33.4441 5.35274C33.2747 4.90411 33.1926 4.42305 33.203 3.93915C33.203 2.89568 33.5315 2.00873 34.2006 1.30438C34.8575 0.600035 35.6604 0.247864 36.6214 0.247864C37.0837 0.247864 37.5338 0.352211 37.9596 0.547862C38.3976 0.743513 38.7382 1.00438 38.9936 1.33047L38.4097 1.94351C38.1903 1.66797 37.9152 1.4496 37.6054 1.30497C37.2955 1.16033 36.9591 1.09322 36.6214 1.10873C35.928 1.10873 35.3319 1.3696 34.821 1.89134C34.3222 2.41307 34.0668 3.09133 34.0668 3.92611C34.0668 4.76089 34.3101 5.43915 34.821 5.96088C35.3319 6.48262 35.9159 6.74349 36.6214 6.74349C37.3514 6.74349 37.9596 6.48262 38.4462 5.96088C38.7625 5.60871 38.9572 5.13915 39.0058 4.52611H36.6214V3.67828H39.7965C39.833 3.86089 39.8452 4.0435 39.8452 4.20002" fill="white"/>
<path fill-rule="evenodd" clip-rule="evenodd" d="M39.845 4.21305H39.7355C39.7355 5.17827 39.4679 5.9087 38.9569 6.48261C38.3487 7.14782 37.5823 7.48695 36.6212 7.48695C35.6967 7.48695 34.9181 7.14782 34.2734 6.46956C33.9579 6.13984 33.7097 5.74358 33.5443 5.30581C33.3788 4.86803 33.2999 4.39825 33.3123 3.9261C33.3123 2.90871 33.6286 2.07393 34.2855 1.38263C34.5899 1.05166 34.954 0.790733 35.3556 0.615802C35.7572 0.44087 36.1878 0.355614 36.6212 0.365245C37.0713 0.365245 37.5093 0.456548 37.9229 0.652199C38.3365 0.84785 38.6528 1.09568 38.9083 1.40872L38.9934 1.33046L38.9083 1.2522L38.3365 1.86524L38.4095 1.9435L38.4947 1.87828C38.0446 1.29133 37.3998 0.991328 36.6212 0.991328C35.8913 0.991328 35.2709 1.26524 34.7478 1.81306C34.2247 2.34784 33.9571 3.06523 33.9571 3.9261C33.9571 4.78696 34.2247 5.49131 34.7478 6.03913C35.2709 6.58695 35.9035 6.86087 36.6212 6.86087C37.3755 6.86087 38.0202 6.58695 38.5312 6.03913C38.8718 5.67392 39.0664 5.16522 39.1151 4.53914V4.4087H36.7429V3.79566H39.8085V3.67827L39.699 3.70436C39.7355 3.87392 39.7477 4.04349 39.7477 4.21305H39.9667C39.9667 4.03045 39.9545 3.84784 39.918 3.66523L39.9058 3.56088H36.4996V4.64349H38.9934V4.52609H38.8718C38.8353 5.11305 38.6528 5.55652 38.3609 5.86957C37.8864 6.37826 37.3146 6.62608 36.6091 6.62608C35.94 6.62608 35.3682 6.36522 34.8816 5.86957C34.395 5.37392 34.1517 4.73479 34.1517 3.9261C34.1517 3.11741 34.395 2.49132 34.8816 1.96958C35.3682 1.47393 35.94 1.22611 36.6091 1.22611C37.339 1.22611 37.8986 1.48698 38.3122 2.02176L38.3973 2.12611L39.0543 1.40872L39.1273 1.3435L39.0664 1.2522C38.775 0.891625 38.4082 0.610052 37.9959 0.430461C37.5611 0.232461 37.0936 0.130432 36.6212 0.130463C35.648 0.130463 34.7965 0.495679 34.1274 1.22611C33.7927 1.57424 33.5282 1.99234 33.3503 2.45453C33.1724 2.91672 33.085 3.41315 33.0933 3.91305C33.0933 4.98261 33.434 5.89565 34.1274 6.62608C34.4527 6.97864 34.8416 7.25645 35.2704 7.44258C35.6991 7.62871 36.1588 7.71925 36.6212 7.70869C37.6309 7.70869 38.4703 7.34347 39.1029 6.62608L39.0299 6.54782L39.1029 6.63913C39.6747 6.02609 39.9545 5.20435 39.9545 4.20001H39.845V4.21305ZM44.8935 1.26524H41.9009V3.50871H44.6016V4.34349H41.9009V6.58695H44.8935V7.44782H41.0615V0.404374H44.8935V1.26524" fill="white"/>
<path fill-rule="evenodd" clip-rule="evenodd" d="M44.8936 1.26529V1.1479H41.7915V3.62615H44.4921V4.22615H41.7915V6.70439H44.7841V7.33048H41.1711V0.521815H44.7841V1.26529H44.8936V1.1479V1.27833H45.0031V0.287033H40.9521V7.56526H45.0031V6.46961H42.0105V4.46093H44.7111V3.39137H42.0105V1.38268H45.0031V1.26529H44.8814H44.8936ZM48.4458 7.44787H47.6064V1.26529H45.7816V0.404424H50.2828V1.26529H48.458V7.44787" fill="white"/>
<path fill-rule="evenodd" clip-rule="evenodd" d="M48.446 7.44787V7.33048H47.716V1.1479H45.8913V0.521815H50.1734V1.1479H48.3486V7.44787H48.446V7.33048V7.46091H48.5676V1.38268H50.3924V0.287033H45.6601V1.38268H47.4971V7.56526H48.5554V7.44787H48.446V7.44787ZM53.5553 7.44787H54.4069V0.404424H53.5553V7.44787Z" fill="white"/>
<path fill-rule="evenodd" clip-rule="evenodd" d="M53.5552 7.44787H53.6647V0.534859H54.2851V7.33048H53.5552V7.46091H53.6647H53.543V7.56526H54.5163V0.287033H53.4457V7.56526H53.5552V7.44787ZM58.1415 7.44787H57.2899V1.26529H55.4651V0.404424H59.9662V1.26529H58.1415V7.44787Z" fill="white"/>
<path fill-rule="evenodd" clip-rule="evenodd" d="M58.1412 7.44793V7.33054H57.4113V1.14796H55.5744V0.521877H59.8565V1.14796H58.0318V7.44793H58.1412V7.33054V7.46098H58.2507V1.38274H60.0755V0.287095H55.3554V1.38274H57.1802V7.56532H58.2507V7.44793H58.1291H58.1412ZM64.3211 5.94794C64.8077 6.46968 65.416 6.73055 66.1094 6.73055C66.815 6.73055 67.4111 6.46968 67.8977 5.94794C68.3843 5.4262 68.6276 4.74794 68.6276 3.92621C68.6276 3.10447 68.3843 2.43926 67.8977 1.90448C67.4111 1.38274 66.815 1.12187 66.1094 1.12187C65.4038 1.12187 64.8077 1.38274 64.3211 1.90448C63.8345 2.42622 63.5912 3.10447 63.5912 3.92621C63.5912 4.74794 63.8345 5.4262 64.3211 5.94794ZM68.5181 6.53489C67.8734 7.25228 67.0705 7.60445 66.1094 7.60445C65.1484 7.60445 64.3455 7.25228 63.7007 6.53489C63.3837 6.19223 63.1341 5.7847 62.967 5.33655C62.7998 4.8884 62.7183 4.40878 62.7275 3.92621C62.7177 3.4447 62.7982 2.96599 62.964 2.51842C63.1299 2.07084 63.3779 1.6635 63.6932 1.32052C64.0086 0.977542 64.3849 0.705893 64.7999 0.521661C65.215 0.337429 65.6602 0.24436 66.1094 0.247965C66.5586 0.24436 67.0039 0.337429 67.4189 0.521661C67.8339 0.705893 68.2103 0.977542 68.5256 1.32052C68.841 1.6635 69.0889 2.07084 69.2548 2.51842C69.4207 2.96599 69.5011 3.4447 69.4913 3.92621C69.4913 4.95664 69.1629 5.83055 68.5181 6.53489Z" fill="white"/>
<path fill-rule="evenodd" clip-rule="evenodd" d="M64.3213 5.94782L64.2483 6.02608C64.7592 6.5739 65.3797 6.86086 66.1096 6.86086C66.8395 6.86086 67.4721 6.5739 67.9708 6.02608C68.4818 5.47826 68.7373 4.77391 68.7373 3.93913C68.7373 3.07827 68.4818 2.37392 67.9708 1.8261C67.731 1.55689 67.4419 1.34377 67.1216 1.20011C66.8013 1.05646 66.4567 0.985369 66.1096 0.991319C65.3797 0.991319 64.7592 1.27827 64.2483 1.8261C63.9949 2.1025 63.7964 2.43107 63.6646 2.79199C63.5329 3.15291 63.4708 3.5387 63.4819 3.92609C63.4819 4.77391 63.7374 5.4913 64.2483 6.02608L64.4065 5.86956C64.1717 5.61415 63.988 5.31004 63.8667 4.97586C63.7454 4.64168 63.6889 4.28446 63.7009 3.92609C63.7009 3.14348 63.9442 2.49131 64.4065 1.98262C64.6267 1.73799 64.8916 1.54458 65.1846 1.41443C65.4776 1.28428 65.7925 1.22017 66.1096 1.2261C66.7908 1.2261 67.3504 1.48697 67.8127 1.98262C68.2871 2.50436 68.5183 3.13044 68.5183 3.93913C68.5183 4.72174 68.275 5.36086 67.8127 5.86956C67.3504 6.37825 66.7908 6.62608 66.1096 6.62608C65.7925 6.632 65.4776 6.5679 65.1846 6.43775C64.8916 6.3076 64.6267 6.11419 64.4065 5.86956L64.3213 5.94782ZM68.5183 6.53477L68.4453 6.45651C67.8127 7.14781 67.0463 7.48694 66.1096 7.49999C65.6758 7.50184 65.2461 7.41052 64.8457 7.23141C64.4454 7.0523 64.0826 6.78902 63.7787 6.45712C63.4748 6.12522 63.236 5.73142 63.0764 5.29895C62.9168 4.86648 62.8396 4.40412 62.8493 3.93913C62.8379 3.47307 62.9139 3.00929 63.0728 2.5753C63.2317 2.14131 63.4702 1.74594 63.7743 1.41264C64.0783 1.07934 64.4417 0.814893 64.8428 0.634974C65.244 0.455054 65.6747 0.363329 66.1096 0.365235C67.0463 0.365235 67.8127 0.704363 68.4331 1.40871C69.0657 2.10001 69.382 2.93479 69.382 3.92609C69.382 4.93043 69.0657 5.76521 68.4453 6.45651L68.6034 6.62608C69.2604 5.89564 69.601 4.98261 69.601 3.92609C69.6108 3.42917 69.5275 2.93519 69.3561 2.47337C69.1847 2.01156 68.9287 1.59128 68.6032 1.2374C68.2777 0.883524 67.8893 0.60323 67.461 0.413097C67.0327 0.222965 66.5731 0.126855 66.1096 0.130453C65.647 0.128603 65.1888 0.226003 64.762 0.416916C64.3351 0.60783 63.9481 0.888398 63.6239 1.2421C63.2997 1.5958 63.0448 2.01548 62.8741 2.47643C62.7035 2.93737 62.6206 3.43027 62.6303 3.92609C62.6303 4.98261 62.9588 5.8826 63.6279 6.62608C64.2848 7.35651 65.1242 7.72172 66.1096 7.72172C67.095 7.72172 67.9344 7.35651 68.6034 6.62608L68.5183 6.53477ZM70.6837 7.44781V0.404365H71.7056L74.8928 5.8826H74.9293L74.8928 4.52609V0.404365H75.7444V7.44781H74.8563L71.5109 1.70871H71.4744L71.5109 3.06522V7.44781H70.6715" fill="white"/>
<path fill-rule="evenodd" clip-rule="evenodd" d="M70.6835 7.44787H70.7808V0.534859H71.6324L74.8318 6.01309H75.0386L75.0021 4.52614V0.521815H75.6226V7.33048H74.917L71.5716 1.59137H71.3648L71.4013 3.06528V7.33048H70.6713V7.46091H70.793H70.6713V7.56526H71.6202V3.06528L71.5837 1.69572H71.4743V1.82616H71.5107V1.69572L71.4256 1.76094L74.7953 7.56526H75.8415V0.287033H74.7832V4.52614L74.8197 5.88266H74.9292V5.76527H74.8927V5.8957L74.99 5.81744L71.7662 0.287033H70.5619V7.56526H70.6835V7.44787Z" fill="white"/>
</svg>
